<svg width="220" height="103" viewBox="0 0 220 103" fill="none" xmlns="http://www.w3.org/2000/svg">
<path fill-rule="evenodd" clip-rule="evenodd" d="M155.807 4.21104C159.341 1.48155 163.691 0 168.168 0C172.646 0 176.996 1.48164 180.531 4.2113M180.531 4.2113L212.219 28.6781C212.218 28.6775 212.219 28.6783 212.219 28.6781C217.128 32.465 220 38.2931 220 44.4651V86.9363C220 91.1979 218.294 95.2842 215.26 98.2963C212.226 101.309 208.111 103 203.822 103H132.515C128.226 103 124.111 101.309 121.077 98.2963C118.042 95.2842 116.337 91.1979 116.337 86.9363V44.4657C116.337 44.466 116.337 44.4654 116.337 44.4657C116.336 41.4203 117.035 38.4144 118.383 35.6786C119.73 32.9425 121.689 30.5484 124.111 28.6792L155.807 4.21104C155.807 4.21121 155.807 4.21087 155.807 4.21104M168.168 8.53255C165.599 8.53255 163.103 9.38293 161.076 10.9485L129.379 35.4171C127.991 36.4889 126.868 37.8611 126.096 39.4287C125.324 40.9966 124.924 42.7184 124.924 44.4631V86.9363C124.924 88.9322 125.723 90.8474 127.146 92.2602C128.569 93.6731 130.501 94.4673 132.515 94.4673H203.822C205.836 94.4673 207.767 93.6731 209.191 92.2602C210.614 90.8474 211.412 88.9322 211.412 86.9363V44.4651C211.412 40.9285 209.768 37.589 206.953 35.4183L175.261 10.9488C173.234 9.38319 170.738 8.53255 168.168 8.53255Z" fill="#4B4B4B"/>
<path fill-rule="evenodd" clip-rule="evenodd" d="M195.422 66.6037C196.682 68.5999 196.074 71.233 194.065 72.4841C186.709 77.0654 177.324 79.2304 168.164 79.2304C159.005 79.2304 149.621 77.0654 142.271 72.4833C140.262 71.2313 139.656 68.5979 140.916 66.602C142.176 64.6061 144.826 64.0032 146.835 65.2556C152.521 68.7999 160.229 70.698 168.164 70.698C176.099 70.698 183.811 68.7999 189.504 65.2547C191.513 64.0032 194.163 64.6072 195.422 66.6037Z" fill="#219F88"/>
<path d="M1.90735e-05 73.2328C1.90735e-05 72.2666 0.0845643 71.1535 0.253655 69.8936C0.422745 68.6334 0.718656 67.2473 1.14138 65.7352C1.60638 64.1813 2.24047 62.501 3.04364 60.695L9.63818 63.0263C9.17321 64.2862 8.77162 65.4413 8.43342 66.4912C8.09524 67.5415 7.84161 68.5286 7.67252 69.4526C7.54569 70.3766 7.48228 71.2586 7.48228 72.0986C7.48228 73.6527 7.82048 74.9969 8.49683 76.1308C9.17321 77.307 10.1243 78.273 11.3502 79.0291C12.6184 79.8271 14.1191 80.4361 15.8523 80.8562C17.6277 81.2761 19.5934 81.486 21.7493 81.486C24.1166 81.486 26.2725 81.3392 28.217 81.045C30.1617 80.7511 31.8313 80.3101 33.2264 79.722C34.6637 79.1761 35.7627 78.5041 36.5236 77.706C37.3268 76.95 37.7284 76.1099 37.7284 75.1857C37.7284 74.7238 37.5594 74.3037 37.221 73.9258C36.883 73.5476 36.3546 73.1697 35.6359 72.7916C34.9595 72.3717 34.0928 71.9727 33.0361 71.5945C31.9794 71.1746 30.7323 70.7125 29.295 70.2086L31.0072 62.7112C32.9938 63.5093 34.8115 64.2022 36.4601 64.7903C38.109 65.3362 39.6306 65.7983 41.0256 66.1765C42.4207 66.5124 43.689 66.7643 44.8302 66.9325C46.0137 67.1005 47.0917 67.1844 48.0642 67.1844C49.3745 67.1844 50.3257 67.5415 50.9176 68.2555C51.5092 68.9276 51.8053 69.7676 51.8053 70.7756C51.8053 71.8256 51.4037 72.7287 50.6005 73.4848C49.8396 74.2408 48.7826 74.6187 47.4301 74.6187C47.134 74.6187 46.8382 74.6187 46.5424 74.6187C46.2463 74.6187 45.9505 74.6187 45.6547 74.6187C45.3586 74.6187 45.0415 74.6187 44.7034 74.6187C44.788 75.0389 44.8302 75.3748 44.8302 75.627C44.8725 75.9209 44.8937 76.2359 44.8937 76.5718C44.8937 77.9999 44.3864 79.4281 43.3719 80.8562C42.3994 82.3263 40.8988 83.6702 38.8696 84.8884C36.8407 86.1063 34.3254 87.0726 31.324 87.7864C28.3228 88.5004 24.7929 88.8575 20.7348 88.8575C16.6343 88.8575 13.02 88.2905 9.89184 87.1565C6.76364 86.0643 4.33298 84.3634 2.59979 82.0533C0.866609 79.7431 1.90735e-05 76.8029 1.90735e-05 73.2328ZM26.3148 102.466C25.2157 102.466 24.2857 102.067 23.5248 101.269C22.7639 100.513 22.3834 99.6101 22.3834 98.5602C22.3834 97.5099 22.7639 96.5859 23.5248 95.7879C24.2857 94.9898 25.2157 94.5908 26.3148 94.5908C27.3716 94.5908 28.2806 94.9898 29.0415 95.7879C29.8024 96.5859 30.1827 97.5099 30.1827 98.5602C30.1827 99.6101 29.8024 100.513 29.0415 101.269C28.2806 102.067 27.3716 102.466 26.3148 102.466ZM16.2327 102.466C15.1337 102.466 14.1825 102.067 13.3793 101.269C12.6184 100.513 12.238 99.6101 12.238 98.5602C12.238 97.5099 12.6184 96.5859 13.3793 95.7879C14.1825 94.9898 15.1337 94.5908 16.2327 94.5908C17.2896 94.5908 18.1984 94.9898 18.9593 95.7879C19.7202 96.5859 20.1007 97.5099 20.1007 98.5602C20.1007 99.6101 19.7202 100.513 18.9593 101.269C18.1984 102.067 17.2896 102.466 16.2327 102.466Z" fill="#4B4B4B"/>
<path d="M47.453 74.6188L48.0871 67.1845C50.6657 67.1845 52.864 67.1845 54.6816 67.1845C56.4995 67.1426 58.0214 67.0794 59.2471 66.9955C60.5154 66.8695 61.5511 66.7015 62.3543 66.4913C63.1575 66.2814 63.8336 66.0503 64.3833 65.7984C65.271 65.3363 65.9896 64.7484 66.5392 64.0344C67.0889 63.3203 67.4905 62.3752 67.744 61.1993C67.9976 59.9811 68.1243 58.469 68.1243 56.6629C68.1243 54.6887 67.9343 52.9878 67.5537 51.5597C67.1734 50.0896 66.6028 48.9765 65.8418 48.2204C65.1232 47.4224 64.2565 47.0234 63.242 47.0234C62.4388 47.0234 61.6989 47.2964 61.0225 47.8425C60.3886 48.3884 59.86 49.1236 59.4374 50.0476C59.0568 50.9296 58.8668 51.8747 58.8668 52.8827C58.8668 53.5548 59.0146 54.1429 59.3106 54.6467C59.6487 55.1508 60.1771 55.5499 60.8957 55.8438C61.6144 56.096 62.5234 56.2219 63.6223 56.2219C64.6793 56.2219 65.7571 56.096 66.8563 55.8438C67.9553 55.5919 68.9488 55.2559 69.8365 54.8358L70.09 61.1993C69.4139 61.6611 68.6317 62.0601 67.744 62.3963C66.8986 62.7322 65.9896 62.9844 65.0174 63.1524C64.0452 63.3203 63.073 63.4043 62.1005 63.4043C59.9025 63.4043 58.0001 63.0892 56.3937 62.4592C54.8296 61.8293 53.6249 60.8631 52.7794 59.5612C51.934 58.217 51.5111 56.5159 51.5111 54.4579C51.5111 52.6936 51.8072 50.9507 52.3991 49.2287C52.9907 47.4644 53.8152 45.8683 54.8719 44.4402C55.9712 42.9703 57.2604 41.8152 58.74 40.9752C60.2616 40.0929 61.9315 39.6519 63.7491 39.6519C66.4125 39.6519 68.6107 40.45 70.3438 42.0461C72.077 43.6001 73.3663 45.7003 74.2117 48.3464C75.0571 50.9927 75.48 53.8698 75.48 56.978C75.48 60.0442 74.9939 62.6902 74.0214 64.9164C73.0492 67.1006 71.7176 68.8646 70.0268 70.2087C69.0546 71.0908 67.892 71.8257 66.5392 72.4138C65.1864 72.9599 63.6223 73.4009 61.8469 73.7368C60.0716 74.073 58.0001 74.3038 55.6328 74.43C53.2655 74.556 50.5389 74.6188 47.453 74.6188ZM63.5591 25.7283C62.5866 25.7283 61.7412 25.3713 61.0225 24.6572C60.3041 23.9012 59.9448 23.0402 59.9448 22.0741C59.9448 21.066 60.3041 20.205 61.0225 19.491C61.7412 18.7769 62.5866 18.4199 63.5591 18.4199C64.5736 18.4199 65.419 18.7769 66.0954 19.491C66.8141 20.205 67.1734 21.066 67.1734 22.0741C67.1734 23.0402 66.8141 23.9012 66.0954 24.6572C65.419 25.3713 64.5736 25.7283 63.5591 25.7283ZM58.8033 33.5407C57.7888 33.5407 56.9221 33.1837 56.2034 32.4697C55.4848 31.7136 55.1257 30.8316 55.1257 29.8235C55.1257 28.8575 55.4848 28.0174 56.2034 27.3034C56.9221 26.5894 57.7888 26.2323 58.8033 26.2323C59.7755 26.2323 60.6209 26.5894 61.3396 27.3034C62.0582 28.0174 62.4176 28.8575 62.4176 29.8235C62.4176 30.8316 62.0582 31.7136 61.3396 32.4697C60.6209 33.1837 59.7755 33.5407 58.8033 33.5407ZM68.1243 33.5407C67.1521 33.5407 66.3067 33.1837 65.588 32.4697C64.8694 31.7136 64.51 30.8316 64.51 29.8235C64.51 28.8575 64.8694 28.0174 65.588 27.3034C66.3067 26.5894 67.1521 26.2323 68.1243 26.2323C69.1391 26.2323 70.0055 26.5894 70.7242 27.3034C71.4428 28.0174 71.8022 28.8575 71.8022 29.8235C71.8022 30.8316 71.4428 31.7136 70.7242 32.4697C70.0055 33.1837 69.1391 33.5407 68.1243 33.5407Z" fill="#4B4B4B"/>
<path d="M76.8829 88.7947L74.2198 81.9903C78.0667 80.6881 81.1314 79.1971 83.4141 77.5171C85.6969 75.879 87.3242 74.157 88.2967 72.3507C89.3112 70.5027 89.8185 68.6547 89.8185 66.8064C89.8185 65.6305 89.6705 64.4543 89.3747 63.2783C89.0786 62.0601 88.6138 60.7371 87.9796 59.309C87.3877 57.8811 86.6056 56.3059 85.6334 54.5839L92.5449 51.2446C94.0667 54.0169 95.2082 56.6629 95.9691 59.183C96.7723 61.7031 97.1739 63.9924 97.1739 66.0503C97.1739 68.3185 96.8356 70.4607 96.1595 72.4769C95.5253 74.4509 94.5954 76.2569 93.3693 77.895C92.1858 79.5753 90.7485 81.0871 89.0576 82.4313C87.3665 83.8174 85.4856 85.0353 83.4141 86.0856C81.3849 87.1355 79.2079 88.0387 76.8829 88.7947Z" fill="#4B4B4B"/>
</svg>
